<svg id="money.svg" xmlns="http://www.w3.org/2000/svg" width="60" height="60" viewBox="0 0 60 60">
  <defs>
    <style>
      .cls-1 {
        fill: #35a226;
      }

      .cls-1, .cls-2 {
        fill-rule: evenodd;
      }

      .cls-2 {
        fill: #fff;
      }
    </style>
  </defs>
  <path id="Polygon_1_copy_3" data-name="Polygon 1 copy 3" class="cls-1" d="M814,985.009l-3.651-3.518-4.463,2.4-2.57-4.375-4.943,1.1-1.3-4.908-5.058-.274,0.073-5.076-4.8-1.632,1.436-4.868-4.179-2.869,2.693-4.3L784,952.8l3.75-3.412-2.084-4.627,4.53-2.271-0.761-5.019,4.973-.962,0.617-5.039,5.048,0.419,1.951-4.685,4.747,1.768,3.14-3.983,4.1,2.986,4.095-2.986,3.14,3.983,4.748-1.768,1.95,4.685,5.048-.419,0.618,5.039,4.972,0.962-0.761,5.019,4.53,2.271-2.084,4.627,3.75,3.412-3.252,3.892,2.693,4.3-4.179,2.869,1.436,4.868-4.8,1.632,0.073,5.076-5.057.274-1.3,4.908-4.943-1.1-2.57,4.375-4.462-2.4Z" transform="translate(-784 -925)"/>
  <path class="cls-2" d="M814.193,969q-6.256,0-12.514,0a2.409,2.409,0,0,1-2.458-1.466,2.993,2.993,0,0,1-.207-1.148Q799,957.011,799,947.635a2.381,2.381,0,0,1,1.048-2.191,2.338,2.338,0,0,1,1.3-.418,4.614,4.614,0,0,0,2.791-.807c3.936-2.355,7.9-4.663,11.854-6.987a0.89,0.89,0,0,1,1.4.258c0.833,1.035,1.668,2.069,2.49,3.112a0.46,0.46,0,0,0,.565.186c0.734-.2,1.477-0.374,2.219-0.546a0.836,0.836,0,0,1,1.118.617c0.428,1.257.851,2.515,1.26,3.778a0.432,0.432,0,0,0,.494.366c0.467-.023.935-0.009,1.4-0.006a2.381,2.381,0,0,1,2.445,2.417c0.018,1.772.014,3.544,0,5.316a0.533,0.533,0,0,0,.322.545,2.343,2.343,0,0,1,1.28,2.172c0.009,1.021,0,2.042,0,3.064a2.366,2.366,0,0,1-1.288,2.2,0.537,0.537,0,0,0-.316.551q0.012,2.567,0,5.132a2.422,2.422,0,0,1-2.645,2.6Q820.47,969,814.193,969Zm0-1.633h12.552a0.834,0.834,0,0,0,1.008-.994c0-1.637-.012-3.274.008-4.911a0.389,0.389,0,0,0-.484-0.477c-1.907.015-3.815,0.007-5.722,0.008a2.4,2.4,0,0,1-2.57-2.487c-0.023-1.033-.015-2.068,0-3.1a2.44,2.44,0,0,1,.653-1.644,2.5,2.5,0,0,1,2-.777c1.9,0,3.79-.008,5.685,0a0.358,0.358,0,0,0,.445-0.437c-0.017-1.624,0-3.249-.006-4.873a0.883,0.883,0,0,0-1.062-1.066q-12.5,0-25,0a0.888,0.888,0,0,0-1.062,1.071l0,18.386c0,0.172,0,.345,0,0.517a0.767,0.767,0,0,0,.775.777c0.135,0.01.27,0.006,0.406,0.006h12.368Zm10.817-12.756c-1.157,0-2.314,0-3.471,0a0.794,0.794,0,0,0-.9.9q-0.009,1.458,0,2.917a0.823,0.823,0,0,0,.975.949q3.4,0,6.793,0a0.816,0.816,0,0,0,.954-0.909q0.018-1.494,0-2.99a0.8,0.8,0,0,0-.912-0.872Q826.728,954.607,825.011,954.609Zm-1.658-9.638a0.2,0.2,0,0,0,.025-0.064c-0.292-.91-0.578-1.823-0.888-2.727a0.377,0.377,0,0,0-.323-0.126c-0.338.057-.669,0.156-1,0.236l-9.321,2.233c-0.518.124-1.036,0.253-1.554,0.38,0,0.023.007,0.045,0.011,0.068h13.053ZM818.3,941.3c-0.113-.17-0.182-0.293-0.269-0.4-0.42-.53-0.847-1.054-1.269-1.582-0.353-.443-0.35-0.443-0.844-0.153q-3.607,2.116-7.213,4.234a2.068,2.068,0,0,0-.23.18l0.041,0.073Zm5.482,15.706a0.8,0.8,0,1,1-1.6-.027A0.8,0.8,0,1,1,823.782,957.005Z" transform="translate(-784 -925)"/>
</svg>
