<svg id="_14.svg" data-name="14.svg" xmlns="http://www.w3.org/2000/svg" width="60" height="60" viewBox="0 0 60 60">
  <defs>
    <style>
      .cls-1 {
        fill: #35a226;
      }

      .cls-1, .cls-2 {
        fill-rule: evenodd;
      }

      .cls-2 {
        fill: #fff;
      }
    </style>
  </defs>
  <path id="Polygon_1_copy_4" data-name="Polygon 1 copy 4" class="cls-1" d="M1056,985.009l-3.65-3.518-4.46,2.4-2.57-4.375-4.94,1.1-1.3-4.908-5.06-.274,0.07-5.076-4.79-1.632,1.43-4.868-4.17-2.869,2.69-4.3L1026,952.8l3.75-3.412-2.09-4.627,4.53-2.271-0.76-5.019,4.97-.962,0.62-5.039,5.05,0.419,1.95-4.685,4.75,1.768,3.14-3.983,4.09,2.986,4.1-2.986,3.14,3.983,4.75-1.768,1.95,4.685,5.04-.419,0.62,5.039,4.97,0.962-0.76,5.019,4.53,2.271-2.08,4.627,3.75,3.412-3.25,3.892,2.69,4.3-4.18,2.869,1.44,4.868-4.8,1.632,0.07,5.076-5.05.274-1.3,4.908-4.94-1.1-2.57,4.375-4.47-2.4Z" transform="translate(-1026 -925)"/>
  <path id="_14" data-name="14" class="cls-2" d="M1040.32,952.93c-0.4.41-.77,0.779-1.14,1.149-0.23.229-.45,0.467-0.68,0.687a0.894,0.894,0,0,1-1.26.014,0.909,0.909,0,0,1,.05-1.276c1-1.032,2.01-2.052,3.02-3.077,0.07-.073.14-0.151,0.21-0.219a0.844,0.844,0,0,1,1.26,0q1.65,1.641,3.27,3.321a0.872,0.872,0,0,1,.01,1.269,0.851,0.851,0,0,1-1.22,0c-0.42-.369-0.79-0.783-1.19-1.173-0.12-.118-0.25-0.223-0.46-0.4a4.481,4.481,0,0,0-.1.54,14.252,14.252,0,0,0,3.82,11.071,13.918,13.918,0,0,0,7.7,4.187,11.594,11.594,0,0,0,4.8.041,13.7,13.7,0,0,0,7.94-4.553,27.492,27.492,0,0,0,2.08-3.05,0.9,0.9,0,1,1,1.56.834,15.338,15.338,0,0,1-8.94,7.851,14.25,14.25,0,0,1-4.97.861,24.71,24.71,0,0,1-2.94-.336,15.371,15.371,0,0,1-7.23-3.476,14.52,14.52,0,0,1-4.42-6.039,15.906,15.906,0,0,1-1.11-7.724c0.01-.1.01-0.205,0.02-0.308A0.777,0.777,0,0,0,1040.32,952.93Zm31.48,3.141c0.11-.1.23-0.193,0.34-0.3,0.45-.445.88-0.9,1.33-1.341a0.876,0.876,0,0,1,1.29-.025,0.894,0.894,0,0,1-.06,1.27q-1.59,1.643-3.21,3.262a0.874,0.874,0,0,1-1.32.016q-1.62-1.614-3.2-3.262a0.907,0.907,0,0,1-.05-1.311,0.9,0.9,0,0,1,1.29.058c0.44,0.413.85,0.852,1.28,1.276a3.99,3.99,0,0,0,.38.332c0.03-.215.05-0.338,0.06-0.462a14.189,14.189,0,0,0-8.14-13.488,13.454,13.454,0,0,0-13.88,1.324,13.812,13.812,0,0,0-4.36,5.1,1.479,1.479,0,0,1-.69.608,0.719,0.719,0,0,1-.85-0.3,0.9,0.9,0,0,1-.07-1,21.375,21.375,0,0,1,1.09-1.868,15.37,15.37,0,0,1,9.98-6.662,15.69,15.69,0,0,1,18.31,12.31,32.459,32.459,0,0,1,.37,3.955c0.02,0.132.01,0.265,0.02,0.4A0.307,0.307,0,0,0,1071.8,956.071Zm-18.78-5.518h-1.62l-2.99,2.38,0.95,1.181,1.07-.857c0.12-.1.35-0.315,0.67-0.641l-0.03.965-0.02.882v5.37h1.97v-9.28Zm9.26,5.833h-1.11v-5.833h-1.81l-4.07,5.992v1.365h3.96v1.923h1.92V957.91h1.11v-1.524Zm-5.27,0,1.71-2.57a7.454,7.454,0,0,0,.56-1.016h0.05c-0.01.08-.03,0.37-0.05,0.87s-0.03.88-.03,1.142v1.574h-2.24Z" transform="translate(-1026 -925)"/>
</svg>
