<svg xmlns="http://www.w3.org/2000/svg" width="34" height="34" viewBox="0 0 34 34">
  <defs>
    <style>
      .cls-1 {
        fill: #9eaeaf;
        fill-rule: evenodd;
      }
    </style>
  </defs>
  <path id="vizov.svg" class="cls-1" d="M1155.43,420.286a3.667,3.667,0,0,1-1.01,2.658c-1.99,1.98-3.97,3.976-5.97,5.952a0.392,0.392,0,0,0,0,.682q4.05,4.028,8.09,8.079a1.082,1.082,0,0,1-.01,1.767q-2.46,2.454-4.92,4.916a3.26,3.26,0,0,1-.3.282,1,1,0,0,1-1.58-.037c-0.64-.623-1.26-1.257-1.89-1.887q-3.1-3.1-6.2-6.195c-0.38-.385-0.4-0.386-0.78,0-1.74,1.745-3.47,3.5-5.24,5.224a2.7,2.7,0,0,1-1.1.655c-3.06.863-6.13,1.691-9.2,2.522a1,1,0,0,1-1.35-1.346c0.47-1.763.96-3.518,1.44-5.277,0.38-1.374.74-2.752,1.14-4.12a1.783,1.783,0,0,1,.44-0.769q2.7-2.734,5.44-5.431c0.28-.28.25-0.429-0.01-0.687q-4.455-4.438-8.9-8.894a1.1,1.1,0,0,1,.01-1.885q2.37-2.365,4.73-4.743c0.13-.126.25-0.255,0.38-0.376a1.041,1.041,0,0,1,1.63.015c1.12,1.121,2.25,2.248,3.37,3.373q2.835,2.837,5.67,5.675c0.23,0.233.37,0.264,0.62,0.006,1.96-1.979,3.93-3.935,5.89-5.909a3.652,3.652,0,0,1,3.92-.87,8.023,8.023,0,0,1,5.49,5.5A7.207,7.207,0,0,1,1155.43,420.286Zm-1.95.112c-0.01-.109-0.01-0.219-0.03-0.328a6.222,6.222,0,0,0-4.67-4.665,1.78,1.78,0,0,0-1.6.526c-3.43,3.438-6.87,6.852-10.3,10.279q-3.765,3.761-7.52,7.535c-0.48.474-.48,0.474,0,0.959,1.64,1.641,3.28,3.272,4.9,4.923a0.444,0.444,0,0,0,.77.008c1.21-1.244,2.45-2.466,3.68-3.7q7.11-7.11,14.23-14.216A1.708,1.708,0,0,0,1153.48,420.4Zm-22.4-3.771a0.948,0.948,0,0,1-1.1-1.157,1.505,1.505,0,0,1,.38-0.61,0.387,0.387,0,0,0-.01-0.676,6.152,6.152,0,0,1-.61-0.609,0.336,0.336,0,0,0-.58,0q-1.77,1.8-3.57,3.575a0.337,0.337,0,0,0,0,.575q4.11,4.088,8.19,8.194a0.389,0.389,0,0,0,.67-0.009q1.77-1.785,3.55-3.541a0.305,0.305,0,0,0,0-.53c-0.6-.583-1.18-1.181-1.78-1.772-0.54-.547-0.54-0.546-1.15-0.082a0.98,0.98,0,0,1-1.31-.074,0.928,0.928,0,0,1-.03-1.271,1.8,1.8,0,0,1,.25-0.267,0.31,0.31,0,0,0,.02-0.54c-0.56-.541-1.12-1.093-1.66-1.657a0.361,0.361,0,0,0-.61,0A4.8,4.8,0,0,1,1131.08,416.627Zm17.84,17.848a0.994,0.994,0,0,1-1.13-.808,1.055,1.055,0,0,1,.44-1,0.328,0.328,0,0,0,.02-0.578c-0.41-.387-0.8-0.788-1.19-1.194a0.341,0.341,0,0,0-.58-0.013q-1.785,1.8-3.58,3.579a0.34,0.34,0,0,0,0,.579q3.675,3.671,7.36,7.356a0.316,0.316,0,0,0,.54,0c1.05-1.048,2.11-2.079,3.15-3.13,0.74-.741.73-0.751-0.02-1.5-0.45-.444-0.45-0.44-0.91-0.039a0.983,0.983,0,0,1-1.06.256,0.911,0.911,0,0,1-.61-0.764,1.065,1.065,0,0,1,.41-0.981,0.364,0.364,0,0,0,0-.641q-0.81-.783-1.59-1.6a0.342,0.342,0,0,0-.58,0A4.143,4.143,0,0,1,1148.92,434.475Zm-22.67,8.038c0.03,0.037.07,0.073,0.1,0.109,2.11-.575,4.21-1.15,6.27-1.71-1.56-1.574-3.07-3.114-4.65-4.711C1127.39,438.317,1126.82,440.415,1126.25,442.513Z" transform="translate(-1123 -411)"/>
</svg>
