<svg id="vozvrat.svg" xmlns="http://www.w3.org/2000/svg" width="60" height="60" viewBox="0 0 60 60">
  <defs>
    <style>
      .cls-1 {
        fill: #35a226;
      }

      .cls-1, .cls-2 {
        fill-rule: evenodd;
      }

      .cls-2 {
        fill: #fff;
      }
    </style>
  </defs>
  <path id="Polygon_1_copy_2" data-name="Polygon 1 copy 2" class="cls-1" d="M572,985.009l-3.651-3.518-4.463,2.4-2.57-4.375-4.943,1.1-1.3-4.908-5.058-.274,0.073-5.076-4.8-1.632,1.436-4.868-4.179-2.869,2.693-4.3L542,952.8l3.75-3.412-2.084-4.627,4.53-2.271-0.761-5.019,4.973-.962,0.617-5.039,5.048,0.419,1.951-4.685,4.747,1.768,3.14-3.983,4.1,2.986,4.095-2.986,3.14,3.983,4.747-1.768,1.951,4.685,5.048-.419,0.617,5.039,4.973,0.962-0.761,5.019,4.53,2.271-2.084,4.627,3.75,3.412-3.252,3.892,2.693,4.3-4.179,2.869,1.436,4.868-4.8,1.632,0.073,5.076-5.057.274-1.3,4.908-4.943-1.1-2.569,4.375-4.463-2.4Z" transform="translate(-542 -925)"/>
  <path class="cls-2" d="M585.62,948.2a3.22,3.22,0,0,1-.886,2.345c-1.76,1.746-3.506,3.507-5.268,5.25a0.343,0.343,0,0,0,0,.6q3.577,3.552,7.137,7.126a0.953,0.953,0,0,1-.01,1.559q-2.17,2.163-4.335,4.335-0.128.129-.264,0.249a0.881,0.881,0,0,1-1.4-.032c-0.563-.549-1.116-1.108-1.672-1.664q-2.733-2.732-5.465-5.465c-0.34-.339-0.35-0.34-0.686,0-1.539,1.54-3.07,3.088-4.627,4.609a2.4,2.4,0,0,1-.974.577c-2.7.761-5.407,1.492-8.114,2.225a0.882,0.882,0,0,1-1.188-1.188c0.41-1.554.844-3.1,1.268-4.654,0.332-1.212.653-2.427,1-3.634a1.656,1.656,0,0,1,.386-0.678q2.385-2.412,4.8-4.791c0.251-.247.223-0.379,0-0.605q-3.936-3.916-7.856-7.846a0.975,0.975,0,0,1,.007-1.663q2.1-2.085,4.18-4.183c0.111-.111.22-0.225,0.335-0.332a0.911,0.911,0,0,1,1.431.014q1.494,1.484,2.978,2.975,2.5,2.5,5,5.006a0.315,0.315,0,0,0,.551,0c1.725-1.746,3.469-3.471,5.2-5.212a3.218,3.218,0,0,1,3.459-.767,7.07,7.07,0,0,1,4.842,4.847A6.512,6.512,0,0,1,585.62,948.2Zm-1.717.1c-0.009-.1-0.014-0.193-0.025-0.289a5.491,5.491,0,0,0-4.125-4.115,1.58,1.58,0,0,0-1.415.464c-3.019,3.032-6.059,6.043-9.088,9.066q-3.322,3.318-6.635,6.647c-0.417.418-.422,0.418,0,0.846,1.443,1.447,2.894,2.886,4.327,4.342a0.386,0.386,0,0,0,.672.007c1.074-1.1,2.167-2.176,3.254-3.262q6.273-6.27,12.549-12.54A1.5,1.5,0,0,0,583.9,948.3Zm-19.768-3.326a0.837,0.837,0,0,1-.971-1.021,1.309,1.309,0,0,1,.34-0.538,0.342,0.342,0,0,0-.014-0.6,5.8,5.8,0,0,1-.538-0.537,0.293,0.293,0,0,0-.508,0q-1.569,1.584-3.153,3.153a0.3,0.3,0,0,0,0,.508q3.624,3.606,7.231,7.228a0.343,0.343,0,0,0,.591-0.008q1.551-1.575,3.129-3.124a0.268,0.268,0,0,0,0-.468c-0.529-.513-1.044-1.041-1.565-1.562-0.484-.483-0.484-0.482-1.019-0.072a0.867,0.867,0,0,1-1.157-.066,0.82,0.82,0,0,1-.027-1.121,1.859,1.859,0,0,1,.225-0.236,0.272,0.272,0,0,0,.013-0.476q-0.744-.716-1.46-1.461a0.322,0.322,0,0,0-.542,0A4.163,4.163,0,0,1,564.135,944.974Zm15.739,15.743a0.883,0.883,0,0,1-1-.713,0.941,0.941,0,0,1,.394-0.884,0.292,0.292,0,0,0,.015-0.509c-0.359-.342-0.707-0.695-1.051-1.053a0.3,0.3,0,0,0-.514-0.011q-1.568,1.587-3.155,3.156a0.3,0.3,0,0,0,0,.511q3.253,3.237,6.5,6.489a0.28,0.28,0,0,0,.478,0c0.923-.924,1.861-1.833,2.78-2.761,0.649-.653.64-0.662-0.02-1.318-0.394-.392-0.39-0.388-0.8-0.035a0.862,0.862,0,0,1-.933.226,0.792,0.792,0,0,1-.535-0.673,0.936,0.936,0,0,1,.361-0.866,0.322,0.322,0,0,0,0-.565q-0.72-.691-1.411-1.412a0.294,0.294,0,0,0-.5,0A4.151,4.151,0,0,1,579.874,960.717Zm-20,7.09,0.086,0.1,5.532-1.509-4.1-4.155Z" transform="translate(-542 -925)"/>
</svg>
